<mxfile host="app.diagrams.net" modified="2021-05-20T12:16:26.001Z" agent="5.0 (Windows NT 10.0; Win64; x64) AppleWebKit/537.36 (KHTML, like Gecko) Chrome/90.0.4430.212 Safari/537.36" etag="1RVb-SfPjG-fY6N4N_Sg" version="14.6.13" type="github">
  <diagram id="t-vG8ZV_y40gXpaXllgX" name="Page-1">
    <mxGraphModel dx="868" dy="1651" grid="1" gridSize="10" guides="1" tooltips="1" connect="1" arrows="1" fold="1" page="1" pageScale="1" pageWidth="827" pageHeight="1169" math="0" shadow="0">
      <root>
        <mxCell id="0" />
        <mxCell id="1" parent="0" />
        <mxCell id="Rd8o1q79E7iB4HKp2Ns0-10" value="&lt;font style=&quot;font-size: 14px&quot;&gt;Creazione profilo utente con informazioni&lt;br&gt;che ne delineano la personalitÃ &lt;/font&gt;" style="text;html=1;resizable=0;autosize=1;align=center;verticalAlign=middle;points=[];fillColor=none;strokeColor=none;rounded=0;fontSize=10;" parent="1" vertex="1">
          <mxGeometry x="278" y="-630" width="270" height="30" as="geometry" />
        </mxCell>
        <mxCell id="Rd8o1q79E7iB4HKp2Ns0-11" value="" style="endArrow=classic;html=1;" parent="1" edge="1">
          <mxGeometry width="50" height="50" relative="1" as="geometry">
            <mxPoint x="413" y="-740" as="sourcePoint" />
            <mxPoint x="413" y="-660" as="targetPoint" />
          </mxGeometry>
        </mxCell>
        <mxCell id="Rd8o1q79E7iB4HKp2Ns0-12" value="" style="strokeWidth=1;shadow=0;dashed=0;align=center;html=1;shape=mxgraph.mockup.containers.browserWindow;rSize=0;strokeColor=#666666;strokeColor2=#008cff;strokeColor3=#c4c4c4;mainText=,;recursiveResize=0;" parent="1" vertex="1">
          <mxGeometry x="137.5" y="-590" width="551" height="390" as="geometry" />
        </mxCell>
        <mxCell id="Rd8o1q79E7iB4HKp2Ns0-13" value="Page 1" style="strokeWidth=1;shadow=0;dashed=0;align=center;html=1;shape=mxgraph.mockup.containers.anchor;fontSize=17;fontColor=#666666;align=left;" parent="Rd8o1q79E7iB4HKp2Ns0-12" vertex="1">
          <mxGeometry x="60" y="12" width="110" height="26" as="geometry" />
        </mxCell>
        <mxCell id="Rd8o1q79E7iB4HKp2Ns0-14" value="https://www.artisticmood.it" style="strokeWidth=1;shadow=0;dashed=0;align=center;html=1;shape=mxgraph.mockup.containers.anchor;rSize=0;fontSize=17;fontColor=#666666;align=left;" parent="Rd8o1q79E7iB4HKp2Ns0-12" vertex="1">
          <mxGeometry x="130" y="60" width="250" height="26" as="geometry" />
        </mxCell>
        <mxCell id="Rd8o1q79E7iB4HKp2Ns0-15" value="" style="shape=image;html=1;verticalAlign=top;verticalLabelPosition=bottom;labelBackgroundColor=#ffffff;imageAspect=0;aspect=fixed;image=https://cdn4.iconfinder.com/data/icons/basic-ui-2-line/32/person-people-man-profile-human-128.png;strokeWidth=1;" parent="Rd8o1q79E7iB4HKp2Ns0-12" vertex="1">
          <mxGeometry x="156" y="135" width="40" height="40" as="geometry" />
        </mxCell>
        <mxCell id="Rd8o1q79E7iB4HKp2Ns0-16" value="&lt;font style=&quot;font-size: 14px&quot;&gt;CREATE &lt;br&gt;YOUR PROFILE&lt;/font&gt;" style="text;html=1;resizable=0;autosize=1;align=center;verticalAlign=middle;points=[];fillColor=none;strokeColor=none;rounded=0;" parent="Rd8o1q79E7iB4HKp2Ns0-12" vertex="1">
          <mxGeometry x="201" y="135" width="120" height="40" as="geometry" />
        </mxCell>
        <mxCell id="Rd8o1q79E7iB4HKp2Ns0-17" value="" style="strokeWidth=1;shadow=0;dashed=0;align=center;html=1;shape=mxgraph.mockup.text.textBox;fontColor=#666666;align=left;fontSize=17;spacingLeft=4;spacingTop=-3;strokeColor=#666666;mainText=" parent="Rd8o1q79E7iB4HKp2Ns0-12" vertex="1">
          <mxGeometry x="293.25" y="265.6300000000001" width="75" height="17" as="geometry" />
        </mxCell>
        <mxCell id="Rd8o1q79E7iB4HKp2Ns0-18" value="&lt;span style=&quot;font-size: 10px&quot;&gt;Violet&lt;/span&gt;" style="strokeWidth=1;shadow=0;dashed=0;align=left;html=1;shape=mxgraph.mockup.text.textBox;fontColor=#666666;align=left;fontSize=10;spacingLeft=4;spacingTop=-3;strokeColor=#666666;mainText=" parent="Rd8o1q79E7iB4HKp2Ns0-12" vertex="1">
          <mxGeometry x="293.25" y="241" width="75" height="17" as="geometry" />
        </mxCell>
        <mxCell id="Rd8o1q79E7iB4HKp2Ns0-19" value="" style="strokeWidth=1;shadow=0;dashed=0;align=center;html=1;shape=mxgraph.mockup.text.textBox;fontColor=#666666;align=left;fontSize=17;spacingLeft=4;spacingTop=-3;strokeColor=#666666;mainText=" parent="Rd8o1q79E7iB4HKp2Ns0-12" vertex="1">
          <mxGeometry x="293.25" y="290.0000000000001" width="75" height="17" as="geometry" />
        </mxCell>
        <mxCell id="Rd8o1q79E7iB4HKp2Ns0-20" value="&lt;span style=&quot;font-size: 10px&quot;&gt;baby Bear&lt;/span&gt;" style="strokeWidth=1;shadow=0;dashed=0;align=center;html=1;shape=mxgraph.mockup.text.textBox;fontColor=#666666;align=left;fontSize=17;spacingLeft=4;spacingTop=-3;strokeColor=#666666;mainText=" parent="Rd8o1q79E7iB4HKp2Ns0-12" vertex="1">
          <mxGeometry x="293.25" y="313.1300000000001" width="75" height="17" as="geometry" />
        </mxCell>
        <mxCell id="Rd8o1q79E7iB4HKp2Ns0-21" value="&lt;font style=&quot;font-size: 11px&quot;&gt;Favorite color&lt;/font&gt;" style="text;html=1;resizable=0;autosize=1;align=left;verticalAlign=middle;points=[];fillColor=none;strokeColor=none;rounded=0;" parent="Rd8o1q79E7iB4HKp2Ns0-12" vertex="1">
          <mxGeometry x="146" y="238.0000000000001" width="80" height="20" as="geometry" />
        </mxCell>
        <mxCell id="Rd8o1q79E7iB4HKp2Ns0-22" value="&lt;font style=&quot;font-size: 11px&quot;&gt;Clothing&lt;/font&gt;" style="text;html=1;resizable=0;autosize=1;align=left;verticalAlign=middle;points=[];fillColor=none;strokeColor=none;rounded=0;" parent="Rd8o1q79E7iB4HKp2Ns0-12" vertex="1">
          <mxGeometry x="146" y="262.6300000000001" width="60" height="20" as="geometry" />
        </mxCell>
        <mxCell id="Rd8o1q79E7iB4HKp2Ns0-23" value="&lt;font style=&quot;font-size: 11px&quot;&gt;Favorite food&lt;/font&gt;" style="text;html=1;resizable=0;autosize=1;align=left;verticalAlign=middle;points=[];fillColor=none;strokeColor=none;rounded=0;" parent="Rd8o1q79E7iB4HKp2Ns0-12" vertex="1">
          <mxGeometry x="146" y="287.0000000000001" width="80" height="20" as="geometry" />
        </mxCell>
        <mxCell id="Rd8o1q79E7iB4HKp2Ns0-24" value="&lt;font style=&quot;font-size: 11px&quot;&gt;Object of childhood&lt;/font&gt;" style="text;html=1;resizable=0;autosize=1;align=left;verticalAlign=middle;points=[];fillColor=none;strokeColor=none;rounded=0;" parent="Rd8o1q79E7iB4HKp2Ns0-12" vertex="1">
          <mxGeometry x="146" y="310.1300000000001" width="110" height="20" as="geometry" />
        </mxCell>
        <mxCell id="Rd8o1q79E7iB4HKp2Ns0-25" value="&lt;font style=&quot;font-size: 11px&quot;&gt;Nome&lt;/font&gt;" style="text;html=1;resizable=0;autosize=1;align=left;verticalAlign=middle;points=[];fillColor=none;strokeColor=none;rounded=0;" parent="Rd8o1q79E7iB4HKp2Ns0-12" vertex="1">
          <mxGeometry x="146" y="189.5" width="40" height="20" as="geometry" />
        </mxCell>
        <mxCell id="Rd8o1q79E7iB4HKp2Ns0-26" value="&lt;font style=&quot;font-size: 10px&quot;&gt;Sofia&lt;/font&gt;" style="strokeWidth=1;shadow=0;dashed=0;align=center;html=1;shape=mxgraph.mockup.text.textBox;fontColor=#666666;align=left;fontSize=17;spacingLeft=4;spacingTop=-3;strokeColor=#666666;mainText=" parent="Rd8o1q79E7iB4HKp2Ns0-12" vertex="1">
          <mxGeometry x="293.25" y="192.5" width="75" height="17" as="geometry" />
        </mxCell>
        <mxCell id="Rd8o1q79E7iB4HKp2Ns0-27" value="CREATE" style="strokeWidth=1;shadow=0;dashed=0;align=center;html=1;shape=mxgraph.mockup.buttons.button;strokeColor=#666666;fontColor=#ffffff;mainText=;buttonStyle=round;fontSize=10;fontStyle=1;fillColor=#008cff;whiteSpace=wrap;" parent="Rd8o1q79E7iB4HKp2Ns0-12" vertex="1">
          <mxGeometry x="211" y="345" width="65" height="20" as="geometry" />
        </mxCell>
        <mxCell id="Rd8o1q79E7iB4HKp2Ns0-28" value="&lt;font style=&quot;font-size: 11px&quot;&gt;Cognome&lt;/font&gt;" style="text;html=1;resizable=0;autosize=1;align=left;verticalAlign=middle;points=[];fillColor=none;strokeColor=none;rounded=0;" parent="Rd8o1q79E7iB4HKp2Ns0-12" vertex="1">
          <mxGeometry x="146" y="213.88" width="60" height="20" as="geometry" />
        </mxCell>
        <mxCell id="Rd8o1q79E7iB4HKp2Ns0-29" value="&lt;font style=&quot;font-size: 10px&quot;&gt;Pascucci&lt;/font&gt;" style="strokeWidth=1;shadow=0;dashed=0;align=center;html=1;shape=mxgraph.mockup.text.textBox;fontColor=#666666;align=left;fontSize=17;spacingLeft=4;spacingTop=-3;strokeColor=#666666;mainText=" parent="Rd8o1q79E7iB4HKp2Ns0-12" vertex="1">
          <mxGeometry x="293.25" y="216.88" width="75" height="17" as="geometry" />
        </mxCell>
        <mxCell id="Rd8o1q79E7iB4HKp2Ns0-30" value="" style="endArrow=classic;html=1;" parent="1" edge="1">
          <mxGeometry width="50" height="50" relative="1" as="geometry">
            <mxPoint x="413" y="-180" as="sourcePoint" />
            <mxPoint x="413" y="-100" as="targetPoint" />
          </mxGeometry>
        </mxCell>
        <mxCell id="C6vwGbydI0JJqS3rU_vb-1" value="" style="strokeWidth=1;shadow=0;dashed=0;align=center;html=1;shape=mxgraph.mockup.containers.browserWindow;rSize=0;strokeColor=#666666;strokeColor2=#008cff;strokeColor3=#c4c4c4;mainText=,;recursiveResize=0;" vertex="1" parent="1">
          <mxGeometry x="139" y="-1130" width="550" height="380" as="geometry" />
        </mxCell>
        <mxCell id="C6vwGbydI0JJqS3rU_vb-2" value="Page 1" style="strokeWidth=1;shadow=0;dashed=0;align=center;html=1;shape=mxgraph.mockup.containers.anchor;fontSize=17;fontColor=#666666;align=left;" vertex="1" parent="C6vwGbydI0JJqS3rU_vb-1">
          <mxGeometry x="60" y="12" width="110" height="26" as="geometry" />
        </mxCell>
        <mxCell id="C6vwGbydI0JJqS3rU_vb-3" value="https://www.draw.io" style="strokeWidth=1;shadow=0;dashed=0;align=center;html=1;shape=mxgraph.mockup.containers.anchor;rSize=0;fontSize=17;fontColor=#666666;align=left;" vertex="1" parent="C6vwGbydI0JJqS3rU_vb-1">
          <mxGeometry x="130" y="60" width="250" height="26" as="geometry" />
        </mxCell>
        <mxCell id="C6vwGbydI0JJqS3rU_vb-4" value="&lt;font style=&quot;font-size: 10px&quot;&gt;Username&lt;/font&gt;" style="strokeWidth=1;shadow=0;dashed=0;align=center;html=1;shape=mxgraph.mockup.text.textBox;fontColor=#666666;align=left;fontSize=17;spacingLeft=4;spacingTop=-3;strokeColor=#666666;mainText=" vertex="1" parent="C6vwGbydI0JJqS3rU_vb-1">
          <mxGeometry x="275" y="183" width="75" height="17" as="geometry" />
        </mxCell>
        <mxCell id="C6vwGbydI0JJqS3rU_vb-5" value="&lt;font style=&quot;font-size: 11px&quot;&gt;Username&lt;/font&gt;" style="text;html=1;resizable=0;autosize=1;align=left;verticalAlign=middle;points=[];fillColor=none;strokeColor=none;rounded=0;" vertex="1" parent="C6vwGbydI0JJqS3rU_vb-1">
          <mxGeometry x="147.5" y="181.5" width="70" height="20" as="geometry" />
        </mxCell>
        <mxCell id="C6vwGbydI0JJqS3rU_vb-6" value="&lt;font style=&quot;font-size: 11px&quot;&gt;Password&lt;/font&gt;" style="text;html=1;resizable=0;autosize=1;align=left;verticalAlign=middle;points=[];fillColor=none;strokeColor=none;rounded=0;" vertex="1" parent="C6vwGbydI0JJqS3rU_vb-1">
          <mxGeometry x="150" y="210" width="60" height="20" as="geometry" />
        </mxCell>
        <mxCell id="C6vwGbydI0JJqS3rU_vb-7" value="********" style="strokeWidth=1;shadow=0;dashed=0;align=center;html=1;shape=mxgraph.mockup.forms.pwField;strokeColor=#999999;mainText=;align=left;fontColor=#666666;fontSize=17;spacingLeft=3;" vertex="1" parent="C6vwGbydI0JJqS3rU_vb-1">
          <mxGeometry x="275" y="213" width="75" height="17" as="geometry" />
        </mxCell>
        <mxCell id="C6vwGbydI0JJqS3rU_vb-8" value="SUBMIT" style="strokeWidth=1;shadow=0;dashed=0;align=center;html=1;shape=mxgraph.mockup.buttons.button;strokeColor=#666666;fontColor=#ffffff;mainText=;buttonStyle=round;fontSize=10;fontStyle=1;fillColor=#008cff;whiteSpace=wrap;" vertex="1" parent="C6vwGbydI0JJqS3rU_vb-1">
          <mxGeometry x="222.5" y="290" width="65" height="20" as="geometry" />
        </mxCell>
        <mxCell id="C6vwGbydI0JJqS3rU_vb-9" value="&lt;font style=&quot;font-size: 14px&quot;&gt;SIGN IN&lt;/font&gt;" style="text;html=1;resizable=0;autosize=1;align=center;verticalAlign=middle;points=[];fillColor=none;strokeColor=none;rounded=0;" vertex="1" parent="C6vwGbydI0JJqS3rU_vb-1">
          <mxGeometry x="217.5" y="140" width="70" height="20" as="geometry" />
        </mxCell>
        <mxCell id="C6vwGbydI0JJqS3rU_vb-10" value="&lt;font style=&quot;font-size: 11px&quot;&gt;Confirm Password&lt;/font&gt;" style="text;html=1;resizable=0;autosize=1;align=left;verticalAlign=middle;points=[];fillColor=none;strokeColor=none;rounded=0;" vertex="1" parent="C6vwGbydI0JJqS3rU_vb-1">
          <mxGeometry x="150" y="240" width="110" height="20" as="geometry" />
        </mxCell>
        <mxCell id="C6vwGbydI0JJqS3rU_vb-11" value="********" style="strokeWidth=1;shadow=0;dashed=0;align=center;html=1;shape=mxgraph.mockup.forms.pwField;strokeColor=#999999;mainText=;align=left;fontColor=#666666;fontSize=17;spacingLeft=3;" vertex="1" parent="C6vwGbydI0JJqS3rU_vb-1">
          <mxGeometry x="275" y="243" width="75" height="17" as="geometry" />
        </mxCell>
      </root>
    </mxGraphModel>
  </diagram>
</mxfile>
